<svg id="Layer_1" data-name="Layer 1" xmlns="http://www.w3.org/2000/svg" viewBox="0 0 1200 1200"><defs><style>.cls-1{fill:#e9e8e8;}.cls-2{fill:#9dd5c0;}.cls-3,.cls-6{fill:#fff;}.cls-4,.cls-7{fill:none;}.cls-4,.cls-6{stroke:#1d252e;stroke-linecap:round;stroke-linejoin:round;stroke-width:4px;}.cls-5{fill:#1d252e;}</style></defs><path class="cls-1" d="M891.54,908.67c-46.09,22.77-116.44,35.7-220.81,35.7-32.78,0-62.83-1.17-90.4-3.42-265.86-21.69-301.94-144-340.4-291.68-42.44-163,56-393.64,251.44-393.64s414,230.67,456.45,393.64C977,761.26,992.78,858.69,891.54,908.67Z"/><path class="cls-2" d="M641.58,592.84c58.28,0,64.49-106.52-8.43-131.91l-166.07,1.19c-33.45-2.34-45.2,127.77-11.75,130.11C455.33,592.23,597,592.84,641.58,592.84Z"/><path id="Path-26" class="cls-3" d="M453,478.47c28.46,22,32.43,48.84-.39,80.22-67.46,2.76-176.1-53.51-206.57-61.52-10-7.88-63.17-4-93.67-31.06-45.75-40.57,1.1-65.31,34.51-57.22s63,34.47,75,45.31C274,459.07,409,471.38,453,478.47Z"/><path id="Path-26-2" data-name="Path-26" class="cls-4" d="M430.24,557.75c-67-7.52-158.71-57.16-186-64.35-10-7.88-61.42-.25-91.92-27.29-45.75-40.57,1.1-65.31,34.51-57.22s63,34.47,75,45.31c11.8,4.72,138.78,16.4,186.72,23.58"/><path class="cls-3" d="M694.81,254.74l-27.76,45.67s-21.49,34-.89,62.69,36.23,28.77,36.23,28.77l-1.22,62.34s-50.49,7.46-60.13,9.63,89.14,63,89.14,63l109.27-60L759.3,454.21l-3.42-69.11s23.7-18.26,20.72-36.25c14.92-1,28.65-4.42,26.26-21.51S796,312.05,796,312.05l3.58-29.55Z"/><path id="Path-20" class="cls-4" d="M788.17,458.29s-23.21-3.18-28.87-4.08c-2.52-21.33-.93-42.77-3.42-69.11q10.3-8.43,13.79-14.53t6.93-21.72q27.42.72,26.26-21.51t-26-18.48"/><path id="Path-21" class="cls-4" d="M675.79,285.67Q655.24,316.46,658.46,339q9.27,45.48,43.93,52.86l-1.22,62.34-23,2.5"/><path id="Path-22" class="cls-4" d="M797,300.87q-11.82-5.55-23-3.51"/><path id="Path-23" class="cls-5" d="M801.06,293.06q-18.22-7.11-31.15-6.44-1.45-5.82-3.65-13-27,31.2-82.52-1.5c-55.55-32.7,21.79-114.76,77.35-76.45,20,14.18,17.71,12.77,20.17,22.13q23.44,2.17,28.39,15.48Q819.84,251.23,801.06,293.06Z"/><path class="cls-5" d="M891.54,908.67c-46.09,22.77-116.44,35.7-220.81,35.7-32.78,0-62.83-1.17-90.4-3.42-.48-.85-.92-1.72-1.31-2.6L593.3,829.49l294-4Z"/><path class="cls-2" d="M887.57,831.42c1.42,83.86-307.77,69.84-307.22-4.95S605.3,462.6,605.3,462.6l63.31-4.8c.72,58.66,131.18,57.58,130.46-1.09,0,0,65.38-.64,85.26,6.82S886.15,747.57,887.57,831.42Z"/><path class="cls-6" d="M924.24,795.2S889.66,798,889.1,810.26,903,820.86,903,820.86l24.55-1.12"/><rect class="cls-2" x="739.93" y="738.14" width="209.3" height="276.05" rx="9.27" transform="translate(-339.59 1156.75) rotate(-59.38)"/><path class="cls-4" d="M982.34,843.06l16.94,10a8.74,8.74,0,0,1,3.07,12l-91.59,154.76a8.75,8.75,0,0,1-12,3.07L689.88,899.25a8.75,8.75,0,0,1-3.07-12L706.5,854"/><path class="cls-4" d="M756.27,769.92l22.13-37.4a8.74,8.74,0,0,1,12-3.07l105.17,62.24"/><rect class="cls-6" x="757.98" y="762.81" width="161.05" height="215.85" rx="9.27" transform="translate(-337.89 1148.86) rotate(-59.38)"/><line class="cls-6" x1="736.98" y1="904.22" x2="819" y2="765.62"/><line class="cls-6" x1="719.53" y1="859.87" x2="905.29" y2="969.8"/><path class="cls-6" d="M690.15,795.55h87.25a0,0,0,0,1,0,0v6.54a25.33,25.33,0,0,1-25.33,25.33H715.47a25.33,25.33,0,0,1-25.33-25.33v-6.54a0,0,0,0,1,0,0Z" transform="translate(-338.3 1029.65) rotate(-59.38)"/><path class="cls-3" d="M1049.4,604.4c10.5,16,17.31,36.63,17.31,53.75,0,30.08-89.13,175.25-89.13,175.25s-96.57,105.47-99.24,36,49.29-73.93,49.29-73.93l40.84-108.21-5.54-12.59"/><path class="cls-4" d="M1049.4,604.4c10.5,16,17.31,36.63,17.31,53.75,0,30.08-89.13,175.25-89.13,175.25s-96.57,105.47-99.24,36,49.29-73.93,49.29-73.93l40.84-108.21-5.54-12.59"/><path class="cls-2" d="M797.94,543.64C784.2,487,847.13,448.06,883.74,463s146.58,76,170.91,141.6c-30,9.92-99.22,86.61-99.22,86.61S811.68,600.27,797.94,543.64Z"/><path class="cls-5" d="M841.61,567.57c0,10.11-8.2,29.29-18.31,29.29S805,577.68,805,567.57a18.31,18.31,0,0,1,36.62,0Z"/><line class="cls-4" x1="807.13" y1="538.04" x2="841.39" y2="538.04"/><path class="cls-4" d="M699,447.59c-53.85,2.82-61.76,23.88-32.55,78.76s61,113.56,72.87,116.92,58.81-89,71.74-118.57,35.22-77-51.93-77.11"/><path class="cls-6" d="M732.76,634.51a15.87,15.87,0,1,1,14.82,28.07,15.55,15.55,0,0,1-3.82,1.43l8.77,16.61-10.46,5.52L726.14,656A15.87,15.87,0,0,1,732.76,634.51Z"/><path class="cls-6" d="M729.34,628a15.87,15.87,0,1,1,14.82,28.07,15.55,15.55,0,0,1-3.82,1.43l8.77,16.61-10.46,5.52-15.94-30.18A15.88,15.88,0,0,1,729.34,628Z"/><path class="cls-2" d="M657.84,260.35l153.94,20.54S840.39,195.27,744,183C659.1,172.16,656.61,258.7,657.84,260.35Z"/><path class="cls-2" d="M657.84,260.35s-107.57,22-23.53,32.43c112.35,13.91,143.1-18.35,143.1-18.35Z"/><path class="cls-4" d="M605,534.14s-20.31,126.59-18.56,179.69"/><path class="cls-4" d="M869.54,626.12C896.31,647,930.62,675.49,939,679.67"/><line class="cls-4" x1="665.32" y1="261.07" x2="763.01" y2="273.2"/><rect class="cls-7" width="1200" height="1200"/></svg>